<?xml version="1.0" encoding="UTF-8"?>
<svg width="12px" height="26px" viewBox="0 0 12 26" version="1.1" xmlns="http://www.w3.org/2000/svg" xmlns:xlink="http://www.w3.org/1999/xlink">
    <title>FF83F89E-18EF-4112-9BB9-99A3B831AF11</title>
    <g id="Tymoff-app" stroke="none" stroke-width="1" fill="none" fill-rule="evenodd">
        <g id="Chat---typing" transform="translate(-42.000000, -818.000000)" fill="#FFFFFF" fill-rule="nonzero">
            <g id="ic-attach-file-18px" transform="translate(42.000000, 818.000000)">
                <path d="M12,20.2222222 C12,23.4144444 9.315,26 6,26 C2.685,26 0,23.4144444 0,20.2222222 L0,4.33333333 C0,1.93555556 2.01,0 4.5,0 C6.99,0 9,1.93555556 9,4.33333333 L9,17.3333333 C9,18.9222222 7.65,20.2222222 6,20.2222222 C4.35,20.2222222 3,18.9222222 3,17.3333333 L3,5.77777778 L4.5,5.77777778 L4.5,17.3333333 C4.5,18.1277778 5.175,18.7777778 6,18.7777778 C6.825,18.7777778 7.5,18.1277778 7.5,17.3333333 L7.5,4.33333333 C7.5,2.74444444 6.15,1.44444444 4.5,1.44444444 C2.85,1.44444444 1.5,2.74444444 1.5,4.33333333 L1.5,20.2222222 C1.5,22.62 3.51,24.5555556 6,24.5555556 C8.49,24.5555556 10.5,22.62 10.5,20.2222222 L10.5,5.77777778 L12,5.77777778 L12,20.2222222 Z" id="Path"></path>
            </g>
        </g>
    </g>
</svg>