<?xml version="1.0" encoding="UTF-8"?>
<svg width="168px" height="169px" viewBox="0 0 168 169" version="1.1" xmlns="http://www.w3.org/2000/svg" xmlns:xlink="http://www.w3.org/1999/xlink">
    <title>AD7AD04F-273A-4738-942F-AD0F03F41EAB</title>
    <defs>
        <circle id="path-1" cx="35.5" cy="35.5" r="35.5"></circle>
        <filter x="-52.8%" y="-57.0%" width="205.6%" height="205.6%" filterUnits="objectBoundingBox" id="filter-2">
            <feOffset dx="0" dy="-3" in="SourceAlpha" result="shadowOffsetOuter1"></feOffset>
            <feGaussianBlur stdDeviation="12" in="shadowOffsetOuter1" result="shadowBlurOuter1"></feGaussianBlur>
            <feColorMatrix values="0 0 0 0 0.196078431   0 0 0 0 0.77254902   0 0 0 0 1  0 0 0 0.488199301 0" type="matrix" in="shadowBlurOuter1"></feColorMatrix>
        </filter>
        <filter id="filter-3">
            <feColorMatrix in="SourceGraphic" type="matrix" values="0 0 0 0 1.000000 0 0 0 0 1.000000 0 0 0 0 1.000000 0 0 0 1.000000 0"></feColorMatrix>
        </filter>
    </defs>
    <g id="Tymoff-app" stroke="none" stroke-width="1" fill="none" fill-rule="evenodd">
        <g id="Chat---typing" transform="translate(-615.000000, -751.000000)">
            <g id="Group" transform="translate(696.500000, 833.500000) rotate(129.000000) translate(-696.500000, -833.500000) translate(661.000000, 798.000000)">
                <g id="Oval">
                    <use fill="black" fill-opacity="1" filter="url(#filter-2)" xlink:href="#path-1"></use>
                    <use fill="#32C5FF" fill-rule="evenodd" xlink:href="#path-1"></use>
                </g>
                <g transform="translate(20.000000, 21.000000)" id="Icons-/-message" filter="url(#filter-3)">
                    <g>
                        <path d="M30.620163,13.9091747 L0.7534963,0.0425080349 C0.732162966,0.0329080349 0.709762966,0.0329080349 0.688429633,0.0254413682 C0.659629633,0.0169080349 0.6318963,0.0073080349 0.602029633,0.00304136823 C0.5710963,-0.00122529844 0.541229633,-4.60207753e-05 0.5102963,0.000908034895 C0.479362966,0.00197470156 0.450562966,0.00304136823 0.419629633,0.00944136823 C0.389762966,0.0158413682 0.360962966,0.0265080349 0.332162966,0.0382413682 C0.312962966,0.0457080349 0.2926963,0.0478413682 0.274562966,0.0574413682 C0.264962966,0.0627747016 0.258562966,0.0713080349 0.248962966,0.0777080349 C0.224429633,0.0926413682 0.202029633,0.111841368 0.179629633,0.132108035 C0.154029633,0.154508035 0.1294963,0.177974702 0.108162966,0.204641368 C0.101762966,0.213174702 0.0932296331,0.217441368 0.0878962997,0.225974702 C0.0782962997,0.239841368 0.0761629664,0.255841368 0.0676296331,0.270774702 C0.0494962997,0.302774702 0.0345629664,0.334774702 0.0238962997,0.369974702 C0.0153629664,0.394508035 0.0110962997,0.420108035 0.00682963306,0.445708035 C0.00149629972,0.479841368 -0.00063703361,0.512908035 0.00016296639,0.547041368 C0.00149629972,0.575841368 0.00576296639,0.602508035 0.0121629664,0.631308035 C0.0164296331,0.650508035 0.0142962997,0.669708035 0.0196296331,0.688908035 L8.55296297,27.3555747 C8.60202963,27.508108 8.7150963,27.629708 8.8622963,27.6883747 C8.92736297,27.7139747 8.99456297,27.7267747 9.06176297,27.7267747 C9.14922963,27.7267747 9.2366963,27.7043747 9.31562963,27.6627747 L15.791363,24.144908 L21.4884296,29.7086414 C21.5140296,29.7331747 21.5460296,29.7459747 21.5748296,29.7651747 C21.602563,29.783308 21.6270963,29.8067747 21.6580296,29.8195747 C21.660163,29.8206414 21.6612296,29.821708 21.6622963,29.8227747 C21.7262963,29.8483747 21.7934963,29.8611747 21.8606963,29.8611747 C21.9310963,29.8611747 22.0014963,29.847308 22.066563,29.8195747 C22.098563,29.8067747 22.1230963,29.7822414 22.1508296,29.7630414 C22.1604296,29.7566414 22.172163,29.7598414 22.1806963,29.7534414 C22.1902963,29.7459747 22.1956296,29.735308 22.2052296,29.7267747 C22.2158963,29.7171747 22.229763,29.712908 22.239363,29.7022414 C22.2404296,29.7011747 22.2404296,29.7011747 22.2414963,29.7011747 C22.2532296,29.6894414 22.2574963,29.6734414 22.268163,29.6606414 C22.2692296,29.6595747 22.2692296,29.658508 22.2702963,29.6574414 C22.2926963,29.629708 22.312963,29.6019747 22.328963,29.5710414 C22.3364296,29.556108 22.348163,29.543308 22.354563,29.527308 C22.3598963,29.5134414 22.3598963,29.4995747 22.364163,29.485708 C22.3758963,29.4494414 22.3812296,29.4142414 22.3844296,29.376908 C22.386563,29.3598414 22.3940296,29.344908 22.3940296,29.3278414 L22.3940296,21.060108 L30.7140296,14.820108 C30.863363,14.708108 30.943363,14.5235747 30.924163,14.3379747 C30.9060296,14.151308 30.789763,13.988108 30.620163,13.9091747 Z M9.37322963,26.4179747 L1.9054963,3.08250803 L17.2804296,22.122508 L9.37322963,26.4179747 Z M16.7726963,23.6115747 L17.8596296,23.0206414 L19.7348296,26.5043747 L16.7726963,23.6115747 Z M21.3284296,27.2115747 L18.6158963,22.1726414 C18.5988296,22.0915747 18.565763,22.0147747 18.511363,21.9486414 L6.0174963,6.47664137 L21.3284296,21.021708 L21.3284296,27.2115747 L21.3284296,27.2115747 Z M21.9022963,20.0958414 L3.25376297,2.3795747 L29.3614963,14.5011747 L21.9022963,20.0958414 Z" id="Shape" fill="#6C7B8A" fill-rule="nonzero"></path>
                    </g>
                </g>
            </g>
        </g>
    </g>
</svg>