<?xml version="1.0" encoding="UTF-8"?>
<svg width="32px" height="30px" viewBox="0 0 32 30" version="1.1" xmlns="http://www.w3.org/2000/svg" xmlns:xlink="http://www.w3.org/1999/xlink">
    <title>8674A043-10D4-4ECA-8FF9-2B37DE4A062A</title>
    <g id="Tymoff-app" stroke="none" stroke-width="1" fill="none" fill-rule="evenodd">
        <g id="Chat---typing" transform="translate(-692.000000, -89.000000)" fill="#6C7B8A" fill-rule="nonzero">
            <g id="gear.1" transform="translate(692.000000, 88.000000)">
                <path d="M21.1773333,30.9426667 C20.74,30.9426667 20.308,30.8333333 19.9133333,30.616 C19.2186667,30.2333333 18.7466667,29.5653333 18.616,28.7826667 C18.5053333,28.1226667 17.896,27.684 17.1826667,27.7546667 C16.404,27.8373333 15.5933333,27.8373333 14.816,27.7546667 C14.1093333,27.6813333 13.4933333,28.1226667 13.3826667,28.7826667 C13.252,29.5653333 12.78,30.232 12.0853333,30.616 C11.3773333,31.0053333 10.5426667,31.0493333 9.78933333,30.732 C8.564,30.216 7.404,29.5466667 6.34,28.74 C5.69466667,28.2493333 5.31333333,27.5066667 5.29733333,26.7 C5.28133333,25.9066667 5.624,25.1613333 6.23733333,24.6573333 C6.752,24.2333333 6.82933333,23.4813333 6.416,22.908 C5.952,22.2626667 5.55333333,21.568 5.228,20.8426667 C4.944,20.2093333 4.24,19.8906667 3.628,20.124 C2.868,20.4066667 2.056,20.332 1.37733333,19.924 C0.688,19.508 0.233333333,18.8106667 0.128,18.0066667 C0.044,17.344 0,16.668 0,16 C0,15.332 0.044,14.656 0.129333333,13.9946667 C0.233333333,13.1906667 0.688,12.492 1.37866667,12.0773333 C2.05866667,11.6693333 2.87333333,11.596 3.61466667,11.872 C4.24266667,12.1093333 4.948,11.792 5.22933333,11.1586667 C5.55466667,10.4333333 5.95333333,9.73866667 6.41866667,9.09333333 C6.83066667,8.52 6.75333333,7.768 6.24,7.34533333 C5.62533333,6.83733333 5.28266667,6.09333333 5.29866667,5.29866667 C5.31466667,4.49333333 5.69466667,3.75066667 6.34,3.26 C7.404,2.45333333 8.564,1.784 9.79066667,1.268 C10.5413333,0.950666667 11.3786667,0.993333333 12.0866667,1.384 C12.7813333,1.76666667 13.2533333,2.43466667 13.384,3.21733333 C13.4946667,3.87733333 14.112,4.32 14.8173333,4.24533333 C15.5946667,4.16266667 16.4053333,4.16266667 17.184,4.24533333 C17.896,4.31866667 18.5066667,3.87733333 18.6173333,3.21733333 C18.748,2.43466667 19.22,1.768 19.9146667,1.384 C20.6213333,0.994666667 21.4573333,0.950666667 22.2106667,1.268 C23.436,1.784 24.596,2.45333333 25.66,3.26 C26.3053333,3.75066667 26.6866667,4.49333333 26.7026667,5.3 C26.7186667,6.09333333 26.376,6.83866667 25.7626667,7.34266667 C25.248,7.76666667 25.1706667,8.51866667 25.584,9.092 C26.048,9.73733333 26.4466667,10.432 26.772,11.1573333 C27.0546667,11.7893333 27.7586667,12.108 28.372,11.876 C29.1306667,11.5933333 29.944,11.6666667 30.6226667,12.076 C31.312,12.492 31.7666667,13.1893333 31.872,13.9933333 C31.956,14.6626667 32,15.336 32,16 C32,16.664 31.956,17.3373333 31.8706667,18.0053333 C31.7666667,18.8106667 31.312,19.508 30.6213333,19.924 C29.9426667,20.332 29.1293333,20.408 28.3853333,20.1293333 L28.3706667,20.124 C27.76,19.8933333 27.0533333,20.2093333 26.7706667,20.8426667 C26.4453333,21.568 26.0466667,22.2626667 25.5813333,22.908 C25.1693333,23.4813333 25.2466667,24.2333333 25.76,24.656 C26.3733333,25.1613333 26.716,25.9066667 26.7,26.7013333 C26.684,27.5066667 26.304,28.2506667 25.6573333,28.74 C24.5933333,29.5453333 23.4333333,30.216 22.208,30.732 C21.876,30.872 21.5266667,30.9426667 21.1773333,30.9426667 Z M17.3453333,26.4146667 C18.6346667,26.4146667 19.72,27.2973333 19.932,28.5653333 C19.9946667,28.9426667 20.2226667,29.264 20.5573333,29.4493333 C20.904,29.64 21.32,29.6613333 21.692,29.504 C22.816,29.032 23.88,28.4173333 24.8533333,27.6786667 C25.1733333,27.436 25.36,27.0706667 25.368,26.6746667 C25.376,26.2906667 25.2106667,25.9306667 24.9146667,25.6866667 C23.8506667,24.812 23.672,23.2826667 24.5,22.1306667 C24.912,21.5586667 25.2666667,20.9413333 25.5546667,20.2986667 C26.124,19.0266667 27.56,18.4013333 28.832,18.872 L28.84,18.8746667 C29.2133333,19.0146667 29.608,18.98 29.9346667,18.7813333 C30.2733333,18.5773333 30.4973333,18.232 30.548,17.836 C30.6266667,17.224 30.6666667,16.6066667 30.6666667,16 C30.6666667,15.3933333 30.6266667,14.776 30.548,14.164 C30.4973333,13.768 30.2733333,13.4226667 29.9346667,13.2186667 C29.6066667,13.0213333 29.2133333,12.9853333 28.856,13.12 C27.568,13.6013333 26.1253333,12.9773333 25.5546667,11.7026667 C25.2666667,11.06 24.9133333,10.444 24.5013333,9.87066667 C23.6733333,8.71866667 23.8506667,7.18933333 24.9146667,6.31466667 C25.212,6.07066667 25.3773333,5.71066667 25.3693333,5.32666667 C25.3613333,4.932 25.1746667,4.56533333 24.8546667,4.324 C23.8813333,3.58533333 22.8173333,2.972 21.6933333,2.49866667 C21.3186667,2.34 20.9053333,2.36 20.5573333,2.55333333 C20.2226667,2.73733333 19.9946667,3.06 19.932,3.43733333 C19.704,4.80266667 18.4546667,5.72266667 17.044,5.572 C16.356,5.5 15.6413333,5.5 14.956,5.572 C13.5373333,5.724 12.296,4.80266667 12.068,3.43733333 C12.0053333,3.05866667 11.7773333,2.736 11.4426667,2.552 C11.0946667,2.36 10.68,2.34 10.308,2.49733333 C9.184,2.97066667 8.12,3.584 7.14666667,4.32266667 C6.82666667,4.56533333 6.64,4.93066667 6.632,5.32666667 C6.624,5.71066667 6.78933333,6.07066667 7.08533333,6.31466667 C8.14933333,7.18933333 8.328,8.71866667 7.5,9.87066667 C7.088,10.4426667 6.73333333,11.0586667 6.44533333,11.7013333 C5.87466667,12.9773333 4.43333333,13.6 3.16,13.1253333 C2.788,12.9853333 2.392,13.0213333 2.06666667,13.2186667 C1.728,13.4226667 1.504,13.768 1.45333333,14.164 C1.37333333,14.7706667 1.33333333,15.3893333 1.33333333,16 C1.33333333,16.6106667 1.37333333,17.2293333 1.452,17.8346667 C1.50266667,18.232 1.72666667,18.5773333 2.06533333,18.78 C2.392,18.9786667 2.788,19.012 3.144,18.8786667 C4.43333333,18.3986667 5.87466667,19.0213333 6.44533333,20.296 C6.73333333,20.9386667 7.08666667,21.5546667 7.49866667,22.128 C8.32666667,23.28 8.14933333,24.8093333 7.08533333,25.684 C6.788,25.928 6.62266667,26.288 6.63066667,26.672 C6.63866667,27.0666667 6.82533333,27.4333333 7.14533333,27.6746667 C8.11866667,28.4133333 9.18266667,29.0266667 10.3066667,29.5 C10.68,29.6573333 11.0946667,29.6373333 11.4426667,29.4453333 C11.7773333,29.2613333 12.0053333,28.9386667 12.068,28.5613333 C12.296,27.196 13.5373333,26.2653333 14.956,26.4266667 C15.6426667,26.4986667 16.3573333,26.4986667 17.044,26.4266667 C17.1453333,26.4186667 17.2466667,26.4146667 17.3453333,26.4146667 Z" id="Shape"></path>
                <path d="M16,22.6666667 C12.324,22.6666667 9.33333333,19.676 9.33333333,16 C9.33333333,12.324 12.324,9.33333333 16,9.33333333 C19.676,9.33333333 22.6666667,12.324 22.6666667,16 C22.6666667,19.676 19.676,22.6666667 16,22.6666667 Z M16,10.6666667 C13.0586667,10.6666667 10.6666667,13.0586667 10.6666667,16 C10.6666667,18.9413333 13.0586667,21.3333333 16,21.3333333 C18.9413333,21.3333333 21.3333333,18.9413333 21.3333333,16 C21.3333333,13.0586667 18.9413333,10.6666667 16,10.6666667 Z" id="Shape"></path>
            </g>
        </g>
    </g>
</svg>